# xmcd CD database file generated by Grip 3.2.0
# 
# Track frame offsets:
#       150
#       12960
#       30870
#       52114
#       69470
#       87640
#       104800
#       127052
#       153797
#       171877
#       188855
#       210387
#       228132
#       245237
#       261330
# 
# Disc length: 3685 seconds
# 
# Revision: 2
# Processed by: cddbd v1.5.1PL2 Copyright (c) Steve Scherf et al.
# Submitted via: Grip 3.2.0
# 
DISCID=d10e630f
DTITLE=R.J. Mischo and His Red Hot Blues Band - Cool Disposition
DYEAR=1997
DGENRE=Blues
TTITLE0=(Everybody's) In The Mood
TTITLE1=I Should Be Dead
TTITLE2=Cold Hearted Woman
TTITLE3=Get Your Money
TTITLE4=Second Wind
TTITLE5=Love My baby
TTITLE6=Taste Of My Own Medicine
TTITLE7=Main Street Strut
TTITLE8=Little Village
TTITLE9=A-OK
TTITLE10=Don't Bring A Friend
TTITLE11=Skinny Woman
TTITLE12=High Maintenance Woman
TTITLE13=Dangerous Boy
TTITLE14=Travellin' All Day
EXTD=YEAR: 1997 ID3G:   0
EXTT0=
EXTT1=
EXTT2=
EXTT3=
EXTT4=
EXTT5=
EXTT6=
EXTT7=
EXTT8=
EXTT9=
EXTT10=
EXTT11=
EXTT12=
EXTT13=
EXTT14=
PLAYORDER=
